<svg width="132" height="21" viewBox="0 0 132 21" fill="none" xmlns="http://www.w3.org/2000/svg">
<path fill-rule="evenodd" clip-rule="evenodd" d="M111.106 4.26678C109.967 3.16579 108.456 2.6153 106.571 2.6153C105.47 2.6153 104.481 2.79257 103.604 3.14713C102.727 3.50169 102 4.02419 101.421 4.71464V2.78325H98.0895V17.7306H101.589V10.1729C101.589 8.71735 101.962 7.60704 102.709 6.84198C103.455 6.05822 104.472 5.66634 105.759 5.66634C106.898 5.66634 107.775 6.00224 108.39 6.67403C109.006 7.32713 109.314 8.30687 109.314 9.61311V17.7306H112.813V9.16523C112.813 7.00059 112.244 5.36777 111.106 4.26678ZM132 17.7306V2.78325H128.501V4.60268C127.904 3.94955 127.195 3.45504 126.374 3.11914C125.571 2.78325 124.685 2.6153 123.715 2.6153C122.259 2.6153 120.953 2.93253 119.795 3.567C118.657 4.20147 117.762 5.09719 117.108 6.25416C116.474 7.39249 116.157 8.7267 116.157 10.2569C116.157 11.7871 116.474 13.1307 117.108 14.2877C117.762 15.4446 118.657 16.3403 119.795 16.9748C120.953 17.6093 122.259 17.9265 123.715 17.9265C124.741 17.9265 125.674 17.7493 126.514 17.3946C127.372 17.0401 128.091 16.5083 128.669 15.7992V17.7306H132ZM127.298 13.6439C126.458 14.5022 125.394 14.9314 124.107 14.9314C122.819 14.9314 121.755 14.5022 120.916 13.6439C120.094 12.7854 119.684 11.6565 119.684 10.2569C119.684 8.85735 120.094 7.72834 120.916 6.86997C121.755 6.01157 122.819 5.58237 124.107 5.58237C125.394 5.58237 126.458 6.01157 127.298 6.86997C128.137 7.72834 128.557 8.85735 128.557 10.2569C128.557 11.6565 128.137 12.7854 127.298 13.6439ZM6.20588 8.76963L25.1865 0.194653C25.997 -0.17817 26.7426 0.907883 26.2077 1.71837L14.5535 19.776C13.9051 20.7972 12.576 20.7972 11.9114 19.776L5.81687 10.3419C5.46027 9.80703 5.65478 9.01273 6.20588 8.76963ZM1.18126 0.0642127L9.35058 3.50067C10.08 3.80866 10.08 4.99197 9.35058 5.29996L4.99036 7.13166C4.40684 7.3748 3.75848 7.14786 3.38567 6.58052L0.176311 1.60414C-0.342374 0.809858 0.370818 -0.276192 1.18126 0.0642127ZM37.742 16.9468C38.9736 17.5999 40.3638 17.9264 41.9127 17.9264C43.3682 17.9264 44.6465 17.6279 45.7475 17.0308C46.8672 16.4149 47.7162 15.5472 48.2947 14.4275L45.6075 12.86C45.1783 13.5505 44.6372 14.073 43.984 14.4275C43.3496 14.7635 42.6497 14.9314 41.8847 14.9314C40.5598 14.9314 39.4681 14.5115 38.6097 13.6718C37.77 12.8134 37.3501 11.6751 37.3501 10.2569C37.3501 8.83859 37.7793 7.70965 38.6377 6.8699C39.4961 6.01151 40.5785 5.58231 41.8847 5.58231C42.6497 5.58231 43.3496 5.75958 43.984 6.11414C44.6372 6.45004 45.1783 6.96321 45.6075 7.65364L48.2947 6.08615C47.7349 4.9665 46.8951 4.1081 45.7755 3.51095C44.6745 2.91381 43.3869 2.61523 41.9127 2.61523C40.3451 2.61523 38.9456 2.9418 37.7139 3.59493C36.501 4.24806 35.5493 5.1531 34.8589 6.31008C34.1685 7.46706 33.8232 8.78265 33.8232 10.2569C33.8232 11.7311 34.1685 13.0559 34.8589 14.2316C35.5493 15.3886 36.5104 16.2936 37.742 16.9468ZM65.712 17.7305V2.78318H62.2131V4.60262C61.6159 3.94949 60.9068 3.45497 60.0858 3.11907C59.2833 2.78318 58.3969 2.61523 57.4266 2.61523C55.971 2.61523 54.6648 2.93247 53.5078 3.56694C52.3695 4.2014 51.4738 5.09713 50.8207 6.2541C50.1862 7.39242 49.869 8.72664 49.869 10.2569C49.869 11.787 50.1862 13.1306 50.8207 14.2876C51.4738 15.4445 52.3695 16.3403 53.5078 16.9747C54.6648 17.6092 55.971 17.9264 57.4266 17.9264C58.4529 17.9264 59.386 17.7492 60.2257 17.3946C61.0841 17.04 61.8026 16.5082 62.381 15.7991V17.7305H65.712ZM61.0095 13.6438C60.1698 14.5022 59.106 14.9314 57.8185 14.9314C56.5309 14.9314 55.4672 14.5022 54.6275 13.6438C53.8064 12.7854 53.3959 11.6564 53.3959 10.2569C53.3959 8.85728 53.8064 7.72828 54.6275 6.8699C55.4672 6.01151 56.5309 5.58231 57.8185 5.58231C59.106 5.58231 60.1698 6.01151 61.0095 6.8699C61.8492 7.72828 62.2691 8.85728 62.2691 10.2569C62.2691 11.6564 61.8492 12.7854 61.0095 13.6438ZM78.9391 2.61523C76.401 2.61523 74.6286 3.39899 73.6206 4.9665V2.78318H70.2899V17.7305H73.7888V10.4808C73.7888 8.98793 74.1713 7.84958 74.9364 7.06584C75.7014 6.26343 76.7655 5.86222 78.1274 5.86222C78.3697 5.86222 78.6408 5.89021 78.9391 5.94619V2.61523ZM85.406 2.78321H81.9073V17.7305H85.406V2.78321ZM89.9984 2.78321H93.4972V17.7305H89.9984V2.78321Z" fill="white"/>
</svg>
